<?xml version="1.0" encoding="UTF-8" standalone="no"?>
<!-- Created with Inkscape (http://www.inkscape.org/) -->

<svg
   xmlns:dc="http://purl.org/dc/elements/1.1/"
   xmlns:cc="http://creativecommons.org/ns#"
   xmlns:rdf="http://www.w3.org/1999/02/22-rdf-syntax-ns#"
   xmlns:svg="http://www.w3.org/2000/svg"
   xmlns="http://www.w3.org/2000/svg"
   xmlns:sodipodi="http://sodipodi.sourceforge.net/DTD/sodipodi-0.dtd"
   xmlns:inkscape="http://www.inkscape.org/namespaces/inkscape"
   version="1.1"
   id="svg1070"
   xml:space="preserve"
   width="816"
   height="1056"
   viewBox="0 0 816 1056"
   sodipodi:docname="blue-white-low-poly.svg"
   inkscape:version="0.92.4 (5da689c313, 2019-01-14)"><metadata
     id="metadata1076"><rdf:RDF><cc:Work
         rdf:about=""><dc:format>image/svg+xml</dc:format><dc:type
           rdf:resource="http://purl.org/dc/dcmitype/StillImage" /><dc:title></dc:title></cc:Work></rdf:RDF></metadata><defs
     id="defs1074"><clipPath
       clipPathUnits="userSpaceOnUse"
       id="clipPath1086"><path
         d="M 0,792 H 612 V 0 H 0 Z"
         id="path1084"
         inkscape:connector-curvature="0" /></clipPath></defs><sodipodi:namedview
     pagecolor="#ffffff"
     bordercolor="#666666"
     borderopacity="1"
     objecttolerance="10"
     gridtolerance="10"
     guidetolerance="10"
     inkscape:pageopacity="0"
     inkscape:pageshadow="2"
     inkscape:window-width="1920"
     inkscape:window-height="1018"
     id="namedview1072"
     showgrid="false"
     inkscape:zoom="0.4993122"
     inkscape:cx="534.71186"
     inkscape:cy="447.45763"
     inkscape:window-x="-8"
     inkscape:window-y="-8"
     inkscape:window-maximized="1"
     inkscape:current-layer="g1078" /><g
     id="g1078"
     inkscape:groupmode="layer"
     inkscape:label="abstract-259-publicdomainvectors [Converted]"
     transform="matrix(1.3333333,0,0,-1.3333333,0,1056)"><g
       id="g2855"><path
         inkscape:connector-curvature="0"
         id="path1088"
         style="fill:#74b5dd;fill-opacity:1;fill-rule:nonzero;stroke:none"
         d="m 1.749,753.777 c 40.236,-1.429 71.941,-2.555 71.941,-2.555 0,0 -1.881,17.344 -4.424,40.778 H 1.749 Z" /><path
         inkscape:connector-curvature="0"
         id="path1090"
         style="fill:none;stroke:#74b5dd;stroke-width:0.93199998;stroke-linecap:butt;stroke-linejoin:miter;stroke-miterlimit:4;stroke-dasharray:none;stroke-opacity:1"
         d="m 1.749,753.777 c 40.236,-1.429 71.941,-2.555 71.941,-2.555 0,0 -1.881,17.344 -4.424,40.778 H 1.749 Z" /><path
         inkscape:connector-curvature="0"
         id="path1092"
         style="fill:#6faed6;fill-opacity:1;fill-rule:nonzero;stroke:none"
         d="m 69.266,792 c 2.543,-23.434 4.424,-40.778 4.424,-40.778 l 118.234,20.553 c 0,0 -7.548,7.997 -19.087,20.225 z" /><path
         inkscape:connector-curvature="0"
         id="path1094"
         style="fill:none;stroke:#6faed6;stroke-width:0.93199998;stroke-linecap:butt;stroke-linejoin:miter;stroke-miterlimit:4;stroke-dasharray:none;stroke-opacity:1"
         d="m 69.266,792 c 2.543,-23.434 4.424,-40.778 4.424,-40.778 l 118.234,20.553 c 0,0 -7.548,7.997 -19.087,20.225 z" /><path
         inkscape:connector-curvature="0"
         id="path1096"
         style="fill:#76b0d6;fill-opacity:1;fill-rule:nonzero;stroke:none"
         d="m 172.837,792 c 11.539,-12.228 19.087,-20.225 19.087,-20.225 0,0 0.546,7.747 1.427,20.225 z" /><path
         inkscape:connector-curvature="0"
         id="path1098"
         style="fill:none;stroke:#76b0d6;stroke-width:0.93199998;stroke-linecap:butt;stroke-linejoin:miter;stroke-miterlimit:4;stroke-dasharray:none;stroke-opacity:1"
         d="m 172.837,792 c 11.539,-12.228 19.087,-20.225 19.087,-20.225 0,0 0.546,7.747 1.427,20.225 z" /><path
         inkscape:connector-curvature="0"
         id="path1100"
         style="fill:#73a8d0;fill-opacity:1;fill-rule:nonzero;stroke:none"
         d="m 193.351,792 c -0.881,-12.478 -1.427,-20.225 -1.427,-20.225 0,0 56.551,11.593 98.656,20.225 z" /><path
         inkscape:connector-curvature="0"
         id="path1102"
         style="fill:none;stroke:#73a8d0;stroke-width:0.93199998;stroke-linecap:butt;stroke-linejoin:miter;stroke-miterlimit:4;stroke-dasharray:none;stroke-opacity:1"
         d="m 193.351,792 c -0.881,-12.478 -1.427,-20.225 -1.427,-20.225 0,0 56.551,11.593 98.656,20.225 z" /><path
         inkscape:connector-curvature="0"
         id="path1104"
         style="fill:#709bc5;fill-opacity:1;fill-rule:nonzero;stroke:none"
         d="m 350.979,792 c 28.688,-16.972 87.056,-51.504 87.056,-51.504 0,0 7.197,22.703 16.327,51.504 z" /><path
         inkscape:connector-curvature="0"
         id="path1106"
         style="fill:none;stroke:#709bc5;stroke-width:0.93199998;stroke-linecap:butt;stroke-linejoin:miter;stroke-miterlimit:4;stroke-dasharray:none;stroke-opacity:1"
         d="m 350.979,792 c 28.688,-16.972 87.056,-51.504 87.056,-51.504 0,0 7.197,22.703 16.327,51.504 z" /><path
         inkscape:connector-curvature="0"
         id="path1108"
         style="fill:#6d93bd;fill-opacity:1;fill-rule:nonzero;stroke:none"
         d="M 612.596,792 H 454.362 c -9.13,-28.801 -16.327,-51.504 -16.327,-51.504 0,0 107.832,6.051 174.561,9.797 z" /><path
         inkscape:connector-curvature="0"
         id="path1110"
         style="fill:none;stroke:#6d93bd;stroke-width:0.93199998;stroke-linecap:butt;stroke-linejoin:miter;stroke-miterlimit:4;stroke-dasharray:none;stroke-opacity:1"
         d="M 612.596,792 H 454.362 c -9.13,-28.801 -16.327,-51.504 -16.327,-51.504 0,0 107.832,6.051 174.561,9.797 z" /><path
         inkscape:connector-curvature="0"
         id="path1112"
         style="fill:#5daedc;fill-opacity:1;fill-rule:nonzero;stroke:none"
         d="m 1.749,641.646 c 25.752,39.224 71.941,109.576 71.941,109.576 0,0 -31.705,1.126 -71.941,2.555 z" /><path
         inkscape:connector-curvature="0"
         id="path1114"
         style="fill:none;stroke:#5daedc;stroke-width:0.93199998;stroke-linecap:butt;stroke-linejoin:miter;stroke-miterlimit:4;stroke-dasharray:none;stroke-opacity:1"
         d="m 1.749,641.646 c 25.752,39.224 71.941,109.576 71.941,109.576 0,0 -31.705,1.126 -71.941,2.555 z" /><path
         inkscape:connector-curvature="0"
         id="path1116"
         style="fill:#4ea3d9;fill-opacity:1;fill-rule:nonzero;stroke:none"
         d="m 1.749,618.346 c 46.71,6.569 174.405,24.524 174.405,24.524 L 73.69,751.222 c 0,0 -46.189,-70.352 -71.941,-109.576 z" /><path
         inkscape:connector-curvature="0"
         id="path1118"
         style="fill:none;stroke:#4ea3d9;stroke-width:0.93199998;stroke-linecap:butt;stroke-linejoin:miter;stroke-miterlimit:4;stroke-dasharray:none;stroke-opacity:1"
         d="m 1.749,618.346 c 46.71,6.569 174.405,24.524 174.405,24.524 L 73.69,751.222 c 0,0 -46.189,-70.352 -71.941,-109.576 z" /><path
         inkscape:connector-curvature="0"
         id="path1120"
         style="fill:#57a5d5;fill-opacity:1;fill-rule:nonzero;stroke:none"
         d="M 73.69,751.222 176.154,642.87 191.924,771.775 Z" /><path
         inkscape:connector-curvature="0"
         id="path1122"
         style="fill:none;stroke:#57a5d5;stroke-width:0.93199998;stroke-linecap:butt;stroke-linejoin:miter;stroke-miterlimit:4;stroke-dasharray:none;stroke-opacity:1"
         d="M 73.69,751.222 176.154,642.87 191.924,771.775 Z" /><path
         inkscape:connector-curvature="0"
         id="path1124"
         style="fill:#4d9bd2;fill-opacity:1;fill-rule:nonzero;stroke:none"
         d="M 191.924,771.775 176.154,642.87 344.842,612.746 Z" /><path
         inkscape:connector-curvature="0"
         id="path1126"
         style="fill:none;stroke:#4d9bd2;stroke-width:0.93199998;stroke-linecap:butt;stroke-linejoin:miter;stroke-miterlimit:4;stroke-dasharray:none;stroke-opacity:1"
         d="M 191.924,771.775 176.154,642.87 344.842,612.746 Z" /><path
         inkscape:connector-curvature="0"
         id="path1128"
         style="fill:#599ccd;fill-opacity:1;fill-rule:nonzero;stroke:none"
         d="m 290.58,792 c -42.105,-8.632 -98.656,-20.225 -98.656,-20.225 L 344.842,612.746 c 0,0 -7.061,141.45 -8.946,179.254 z" /><path
         inkscape:connector-curvature="0"
         id="path1130"
         style="fill:none;stroke:#599ccd;stroke-width:0.93199998;stroke-linecap:butt;stroke-linejoin:miter;stroke-miterlimit:4;stroke-dasharray:none;stroke-opacity:1"
         d="m 290.58,792 c -42.105,-8.632 -98.656,-20.225 -98.656,-20.225 L 344.842,612.746 c 0,0 -7.061,141.45 -8.946,179.254 z" /><path
         inkscape:connector-curvature="0"
         id="path1132"
         style="fill:#5896c8;fill-opacity:1;fill-rule:nonzero;stroke:none"
         d="m 335.896,792 c 1.885,-37.804 8.946,-179.254 8.946,-179.254 l 93.193,127.75 c 0,0 -58.368,34.532 -87.056,51.504 z" /><path
         inkscape:connector-curvature="0"
         id="path1134"
         style="fill:none;stroke:#5896c8;stroke-width:0.93199998;stroke-linecap:butt;stroke-linejoin:miter;stroke-miterlimit:4;stroke-dasharray:none;stroke-opacity:1"
         d="m 335.896,792 c 1.885,-37.804 8.946,-179.254 8.946,-179.254 l 93.193,127.75 c 0,0 -58.368,34.532 -87.056,51.504 z" /><path
         inkscape:connector-curvature="0"
         id="path1136"
         style="fill:#468dc7;fill-opacity:1;fill-rule:nonzero;stroke:none"
         d="M 438.035,740.496 344.842,612.746 528.857,579.823 Z" /><path
         inkscape:connector-curvature="0"
         id="path1138"
         style="fill:none;stroke:#468dc7;stroke-width:0.93199998;stroke-linecap:butt;stroke-linejoin:miter;stroke-miterlimit:4;stroke-dasharray:none;stroke-opacity:1"
         d="M 438.035,740.496 344.842,612.746 528.857,579.823 Z" /><path
         inkscape:connector-curvature="0"
         id="path1140"
         style="fill:#538ac0;fill-opacity:1;fill-rule:nonzero;stroke:none"
         d="m 612.596,750.293 c -66.729,-3.746 -174.561,-9.797 -174.561,-9.797 l 90.822,-160.673 c 0,0 45.512,58.322 83.739,107.31 z" /><path
         inkscape:connector-curvature="0"
         id="path1142"
         style="fill:none;stroke:#538ac0;stroke-width:0.93199998;stroke-linecap:butt;stroke-linejoin:miter;stroke-miterlimit:4;stroke-dasharray:none;stroke-opacity:1"
         d="m 612.596,750.293 c -66.729,-3.746 -174.561,-9.797 -174.561,-9.797 l 90.822,-160.673 c 0,0 45.512,58.322 83.739,107.31 z" /><path
         inkscape:connector-curvature="0"
         id="path1144"
         style="fill:#4881b9;fill-opacity:1;fill-rule:nonzero;stroke:none"
         d="m 612.596,687.133 c -38.227,-48.988 -83.739,-107.31 -83.739,-107.31 0,0 45.34,-0.872 83.739,-1.61 z" /><path
         inkscape:connector-curvature="0"
         id="path1146"
         style="fill:none;stroke:#4881b9;stroke-width:0.93199998;stroke-linecap:butt;stroke-linejoin:miter;stroke-miterlimit:4;stroke-dasharray:none;stroke-opacity:1"
         d="m 612.596,687.133 c -38.227,-48.988 -83.739,-107.31 -83.739,-107.31 0,0 45.34,-0.872 83.739,-1.61 z" /><path
         inkscape:connector-curvature="0"
         id="path1148"
         style="fill:#309edd;fill-opacity:1;fill-rule:nonzero;stroke:none"
         d="m 1.749,439.389 c 21.463,-10.863 37.859,-19.16 37.859,-19.16 0,0 -21.783,77.931 -37.859,135.449 z" /><path
         inkscape:connector-curvature="0"
         id="path1150"
         style="fill:none;stroke:#309edd;stroke-width:0.93199998;stroke-linecap:butt;stroke-linejoin:miter;stroke-miterlimit:4;stroke-dasharray:none;stroke-opacity:1"
         d="m 1.749,439.389 c 21.463,-10.863 37.859,-19.16 37.859,-19.16 0,0 -21.783,77.931 -37.859,135.449 z" /><path
         inkscape:connector-curvature="0"
         id="path1152"
         style="fill:#2a99d9;fill-opacity:1;fill-rule:nonzero;stroke:none"
         d="M 1.749,555.678 C 17.825,498.16 39.608,420.229 39.608,420.229 l 96.561,33.109 c 0,0 -94.981,102.116 -134.42,144.518 z" /><path
         inkscape:connector-curvature="0"
         id="path1154"
         style="fill:none;stroke:#2a99d9;stroke-width:0.93199998;stroke-linecap:butt;stroke-linejoin:miter;stroke-miterlimit:4;stroke-dasharray:none;stroke-opacity:1"
         d="M 1.749,555.678 C 17.825,498.16 39.608,420.229 39.608,420.229 l 96.561,33.109 c 0,0 -94.981,102.116 -134.42,144.518 z" /><path
         inkscape:connector-curvature="0"
         id="path1156"
         style="fill:#369bd9;fill-opacity:1;fill-rule:nonzero;stroke:none"
         d="m 1.749,597.856 c 39.439,-42.402 134.42,-144.518 134.42,-144.518 l 39.985,189.532 c 0,0 -127.695,-17.955 -174.405,-24.524 z" /><path
         inkscape:connector-curvature="0"
         id="path1158"
         style="fill:none;stroke:#369bd9;stroke-width:0.93199998;stroke-linecap:butt;stroke-linejoin:miter;stroke-miterlimit:4;stroke-dasharray:none;stroke-opacity:1"
         d="m 1.749,597.856 c 39.439,-42.402 134.42,-144.518 134.42,-144.518 l 39.985,189.532 c 0,0 -127.695,-17.955 -174.405,-24.524 z" /><path
         inkscape:connector-curvature="0"
         id="path1160"
         style="fill:#2e94d4;fill-opacity:1;fill-rule:nonzero;stroke:none"
         d="M 176.154,642.87 136.169,453.338 291.603,511.663 Z" /><path
         inkscape:connector-curvature="0"
         id="path1162"
         style="fill:none;stroke:#2e94d4;stroke-width:0.93199998;stroke-linecap:butt;stroke-linejoin:miter;stroke-miterlimit:4;stroke-dasharray:none;stroke-opacity:1"
         d="M 176.154,642.87 136.169,453.338 291.603,511.663 Z" /><path
         inkscape:connector-curvature="0"
         id="path1164"
         style="fill:#3994d1;fill-opacity:1;fill-rule:nonzero;stroke:none"
         d="M 176.154,642.87 291.603,511.663 344.842,612.746 Z" /><path
         inkscape:connector-curvature="0"
         id="path1166"
         style="fill:none;stroke:#3994d1;stroke-width:0.93199998;stroke-linecap:butt;stroke-linejoin:miter;stroke-miterlimit:4;stroke-dasharray:none;stroke-opacity:1"
         d="M 176.154,642.87 291.603,511.663 344.842,612.746 Z" /><path
         inkscape:connector-curvature="0"
         id="path1168"
         style="fill:#2a8ac7;fill-opacity:1;fill-rule:nonzero;stroke:none"
         d="M 344.842,612.746 291.603,511.663 467.617,429.513 Z" /><path
         inkscape:connector-curvature="0"
         id="path1170"
         style="fill:none;stroke:#2a8ac7;stroke-width:0.93199998;stroke-linecap:butt;stroke-linejoin:miter;stroke-miterlimit:4;stroke-dasharray:none;stroke-opacity:1"
         d="M 344.842,612.746 291.603,511.663 467.617,429.513 Z" /><path
         inkscape:connector-curvature="0"
         id="path1172"
         style="fill:#2e88c4;fill-opacity:1;fill-rule:nonzero;stroke:none"
         d="m 344.842,612.746 122.775,-183.233 61.24,150.31 z" /><path
         inkscape:connector-curvature="0"
         id="path1174"
         style="fill:none;stroke:#2e88c4;stroke-width:0.93199998;stroke-linecap:butt;stroke-linejoin:miter;stroke-miterlimit:4;stroke-dasharray:none;stroke-opacity:1"
         d="m 344.842,612.746 122.775,-183.233 61.24,150.31 z" /><path
         inkscape:connector-curvature="0"
         id="path1176"
         style="fill:#287fbb;fill-opacity:1;fill-rule:nonzero;stroke:none"
         d="m 528.857,579.823 -61.24,-150.31 137.145,51.049 z" /><path
         inkscape:connector-curvature="0"
         id="path1178"
         style="fill:none;stroke:#287fbb;stroke-width:0.93199998;stroke-linecap:butt;stroke-linejoin:miter;stroke-miterlimit:4;stroke-dasharray:none;stroke-opacity:1"
         d="m 528.857,579.823 -61.24,-150.31 137.145,51.049 z" /><path
         inkscape:connector-curvature="0"
         id="path1180"
         style="fill:#337eb9;fill-opacity:1;fill-rule:nonzero;stroke:none"
         d="m 612.596,578.213 c -38.399,0.738 -83.739,1.61 -83.739,1.61 l 75.905,-99.261 c 0,0 3.074,4.909 7.834,12.514 z" /><path
         inkscape:connector-curvature="0"
         id="path1182"
         style="fill:none;stroke:#337eb9;stroke-width:0.93199998;stroke-linecap:butt;stroke-linejoin:miter;stroke-miterlimit:4;stroke-dasharray:none;stroke-opacity:1"
         d="m 612.596,578.213 c -38.399,0.738 -83.739,1.61 -83.739,1.61 l 75.905,-99.261 c 0,0 3.074,4.909 7.834,12.514 z" /><path
         inkscape:connector-curvature="0"
         id="path1184"
         style="fill:#2975b0;fill-opacity:1;fill-rule:nonzero;stroke:none"
         d="m 612.596,493.076 c -4.76,-7.605 -7.834,-12.514 -7.834,-12.514 0,0 3.209,-13.825 7.834,-33.749 z" /><path
         inkscape:connector-curvature="0"
         id="path1186"
         style="fill:none;stroke:#2975b0;stroke-width:0.93199998;stroke-linecap:butt;stroke-linejoin:miter;stroke-miterlimit:4;stroke-dasharray:none;stroke-opacity:1"
         d="m 612.596,493.076 c -4.76,-7.605 -7.834,-12.514 -7.834,-12.514 0,0 3.209,-13.825 7.834,-33.749 z" /><path
         inkscape:connector-curvature="0"
         id="path1188"
         style="fill:#2997d7;fill-opacity:1;fill-rule:nonzero;stroke:none"
         d="m 1.749,399.968 c 22.077,11.814 37.859,20.261 37.859,20.261 0,0 -16.396,8.297 -37.859,19.16 z" /><path
         inkscape:connector-curvature="0"
         id="path1190"
         style="fill:none;stroke:#2997d7;stroke-width:0.93199998;stroke-linecap:butt;stroke-linejoin:miter;stroke-miterlimit:4;stroke-dasharray:none;stroke-opacity:1"
         d="m 1.749,399.968 c 22.077,11.814 37.859,20.261 37.859,20.261 0,0 -16.396,8.297 -37.859,19.16 z" /><path
         inkscape:connector-curvature="0"
         id="path1192"
         style="fill:#238bca;fill-opacity:1;fill-rule:nonzero;stroke:none"
         d="m 1.749,287.303 c 36.974,-10.664 66.969,-19.316 66.969,-19.316 l -29.11,152.242 c 0,0 -15.782,-8.447 -37.859,-20.261 z" /><path
         inkscape:connector-curvature="0"
         id="path1194"
         style="fill:none;stroke:#238bca;stroke-width:0.93199998;stroke-linecap:butt;stroke-linejoin:miter;stroke-miterlimit:4;stroke-dasharray:none;stroke-opacity:1"
         d="m 1.749,287.303 c 36.974,-10.664 66.969,-19.316 66.969,-19.316 l -29.11,152.242 c 0,0 -15.782,-8.447 -37.859,-20.261 z" /><path
         inkscape:connector-curvature="0"
         id="path1196"
         style="fill:#218bca;fill-opacity:1;fill-rule:nonzero;stroke:none"
         d="m 39.608,420.229 29.11,-152.242 67.451,185.351 z" /><path
         inkscape:connector-curvature="0"
         id="path1198"
         style="fill:none;stroke:#218bca;stroke-width:0.93199998;stroke-linecap:butt;stroke-linejoin:miter;stroke-miterlimit:4;stroke-dasharray:none;stroke-opacity:1"
         d="m 39.608,420.229 29.11,-152.242 67.451,185.351 z" /><path
         inkscape:connector-curvature="0"
         id="path1200"
         style="fill:#1f85c3;fill-opacity:1;fill-rule:nonzero;stroke:none"
         d="M 136.169,453.338 68.718,267.987 211.95,338.989 Z" /><path
         inkscape:connector-curvature="0"
         id="path1202"
         style="fill:none;stroke:#1f85c3;stroke-width:0.93199998;stroke-linecap:butt;stroke-linejoin:miter;stroke-miterlimit:4;stroke-dasharray:none;stroke-opacity:1"
         d="M 136.169,453.338 68.718,267.987 211.95,338.989 Z" /><path
         inkscape:connector-curvature="0"
         id="path1204"
         style="fill:#208cca;fill-opacity:1;fill-rule:nonzero;stroke:none"
         d="M 136.169,453.338 211.95,338.989 291.603,511.663 Z" /><path
         inkscape:connector-curvature="0"
         id="path1206"
         style="fill:none;stroke:#208cca;stroke-width:0.93199998;stroke-linecap:butt;stroke-linejoin:miter;stroke-miterlimit:4;stroke-dasharray:none;stroke-opacity:1"
         d="M 136.169,453.338 211.95,338.989 291.603,511.663 Z" /><path
         inkscape:connector-curvature="0"
         id="path1208"
         style="fill:#2281be;fill-opacity:1;fill-rule:nonzero;stroke:none"
         d="M 291.603,511.663 211.95,338.989 376.095,325.25 Z" /><path
         inkscape:connector-curvature="0"
         id="path1210"
         style="fill:none;stroke:#2281be;stroke-width:0.93199998;stroke-linecap:butt;stroke-linejoin:miter;stroke-miterlimit:4;stroke-dasharray:none;stroke-opacity:1"
         d="M 291.603,511.663 211.95,338.989 376.095,325.25 Z" /><path
         inkscape:connector-curvature="0"
         id="path1212"
         style="fill:#2480bd;fill-opacity:1;fill-rule:nonzero;stroke:none"
         d="M 291.603,511.663 376.095,325.25 467.617,429.513 Z" /><path
         inkscape:connector-curvature="0"
         id="path1214"
         style="fill:none;stroke:#2480bd;stroke-width:0.93199998;stroke-linecap:butt;stroke-linejoin:miter;stroke-miterlimit:4;stroke-dasharray:none;stroke-opacity:1"
         d="M 291.603,511.663 376.095,325.25 467.617,429.513 Z" /><path
         inkscape:connector-curvature="0"
         id="path1216"
         style="fill:#286fa8;fill-opacity:1;fill-rule:nonzero;stroke:none"
         d="M 467.617,429.513 376.095,325.25 547.178,241.729 Z" /><path
         inkscape:connector-curvature="0"
         id="path1218"
         style="fill:none;stroke:#286fa8;stroke-width:0.93199998;stroke-linecap:butt;stroke-linejoin:miter;stroke-miterlimit:4;stroke-dasharray:none;stroke-opacity:1"
         d="M 467.617,429.513 376.095,325.25 547.178,241.729 Z" /><path
         inkscape:connector-curvature="0"
         id="path1220"
         style="fill:#2868a1;fill-opacity:1;fill-rule:nonzero;stroke:none"
         d="M 612.596,326.996 C 561.011,363.472 467.617,429.513 467.617,429.513 l 79.561,-187.784 c 0,0 36.767,23 65.418,40.921 z" /><path
         inkscape:connector-curvature="0"
         id="path1222"
         style="fill:none;stroke:#2868a1;stroke-width:0.93199998;stroke-linecap:butt;stroke-linejoin:miter;stroke-miterlimit:4;stroke-dasharray:none;stroke-opacity:1"
         d="M 612.596,326.996 C 561.011,363.472 467.617,429.513 467.617,429.513 l 79.561,-187.784 c 0,0 36.767,23 65.418,40.921 z" /><path
         inkscape:connector-curvature="0"
         id="path1224"
         style="fill:#2972ad;fill-opacity:1;fill-rule:nonzero;stroke:none"
         d="m 612.596,446.813 c -4.625,19.924 -7.834,33.749 -7.834,33.749 L 467.617,429.513 c 0,0 93.394,-66.041 144.979,-102.517 z" /><path
         inkscape:connector-curvature="0"
         id="path1226"
         style="fill:none;stroke:#2972ad;stroke-width:0.93199998;stroke-linecap:butt;stroke-linejoin:miter;stroke-miterlimit:4;stroke-dasharray:none;stroke-opacity:1"
         d="m 612.596,446.813 c -4.625,19.924 -7.834,33.749 -7.834,33.749 L 467.617,429.513 c 0,0 93.394,-66.041 144.979,-102.517 z" /><path
         inkscape:connector-curvature="0"
         id="path1228"
         style="fill:#267eba;fill-opacity:1;fill-rule:nonzero;stroke:none"
         d="m 1.749,176.616 c 11.491,6.085 18.634,9.866 18.634,9.866 0,0 -7.257,6.55 -18.634,16.818 z" /><path
         inkscape:connector-curvature="0"
         id="path1230"
         style="fill:none;stroke:#267eba;stroke-width:0.93199998;stroke-linecap:butt;stroke-linejoin:miter;stroke-miterlimit:4;stroke-dasharray:none;stroke-opacity:1"
         d="m 1.749,176.616 c 11.491,6.085 18.634,9.866 18.634,9.866 0,0 -7.257,6.55 -18.634,16.818 z" /><path
         inkscape:connector-curvature="0"
         id="path1232"
         style="fill:#2281be;fill-opacity:1;fill-rule:nonzero;stroke:none"
         d="m 1.749,203.3 c 11.377,-10.268 18.634,-16.818 18.634,-16.818 l 48.335,81.505 c 0,0 -29.995,8.652 -66.969,19.316 z" /><path
         inkscape:connector-curvature="0"
         id="path1234"
         style="fill:none;stroke:#2281be;stroke-width:0.93199998;stroke-linecap:butt;stroke-linejoin:miter;stroke-miterlimit:4;stroke-dasharray:none;stroke-opacity:1"
         d="m 1.749,203.3 c 11.377,-10.268 18.634,-16.818 18.634,-16.818 l 48.335,81.505 c 0,0 -29.995,8.652 -66.969,19.316 z" /><path
         inkscape:connector-curvature="0"
         id="path1236"
         style="fill:#2675b0;fill-opacity:1;fill-rule:nonzero;stroke:none"
         d="M 68.718,267.987 20.383,186.482 159.87,174.127 Z" /><path
         inkscape:connector-curvature="0"
         id="path1238"
         style="fill:none;stroke:#2675b0;stroke-width:0.93199998;stroke-linecap:butt;stroke-linejoin:miter;stroke-miterlimit:4;stroke-dasharray:none;stroke-opacity:1"
         d="M 68.718,267.987 20.383,186.482 159.87,174.127 Z" /><path
         inkscape:connector-curvature="0"
         id="path1240"
         style="fill:#2478b4;fill-opacity:1;fill-rule:nonzero;stroke:none"
         d="m 68.718,267.987 91.152,-93.86 52.08,164.862 z" /><path
         inkscape:connector-curvature="0"
         id="path1242"
         style="fill:none;stroke:#2478b4;stroke-width:0.93199998;stroke-linecap:butt;stroke-linejoin:miter;stroke-miterlimit:4;stroke-dasharray:none;stroke-opacity:1"
         d="m 68.718,267.987 91.152,-93.86 52.08,164.862 z" /><path
         inkscape:connector-curvature="0"
         id="path1244"
         style="fill:#2675b0;fill-opacity:1;fill-rule:nonzero;stroke:none"
         d="M 211.95,338.989 159.87,174.127 376.095,325.25 Z" /><path
         inkscape:connector-curvature="0"
         id="path1246"
         style="fill:none;stroke:#2675b0;stroke-width:0.93199998;stroke-linecap:butt;stroke-linejoin:miter;stroke-miterlimit:4;stroke-dasharray:none;stroke-opacity:1"
         d="M 211.95,338.989 159.87,174.127 376.095,325.25 Z" /><path
         inkscape:connector-curvature="0"
         id="path1248"
         style="fill:#2667a1;fill-opacity:1;fill-rule:nonzero;stroke:none"
         d="M 376.095,325.25 159.87,174.127 286.688,82.505 Z" /><path
         inkscape:connector-curvature="0"
         id="path1250"
         style="fill:none;stroke:#2667a1;stroke-width:0.93199998;stroke-linecap:butt;stroke-linejoin:miter;stroke-miterlimit:4;stroke-dasharray:none;stroke-opacity:1"
         d="M 376.095,325.25 159.87,174.127 286.688,82.505 Z" /><path
         inkscape:connector-curvature="0"
         id="path1252"
         style="fill:#266096;fill-opacity:1;fill-rule:nonzero;stroke:none"
         d="M 376.095,325.25 286.688,82.505 523.18,162.938 Z" /><path
         inkscape:connector-curvature="0"
         id="path1254"
         style="fill:none;stroke:#266096;stroke-width:0.93199998;stroke-linecap:butt;stroke-linejoin:miter;stroke-miterlimit:4;stroke-dasharray:none;stroke-opacity:1"
         d="M 376.095,325.25 286.688,82.505 523.18,162.938 Z" /><path
         inkscape:connector-curvature="0"
         id="path1256"
         style="fill:#266199;fill-opacity:1;fill-rule:nonzero;stroke:none"
         d="M 376.095,325.25 523.18,162.938 547.178,241.729 Z" /><path
         inkscape:connector-curvature="0"
         id="path1258"
         style="fill:none;stroke:#266199;stroke-width:0.93199998;stroke-linecap:butt;stroke-linejoin:miter;stroke-miterlimit:4;stroke-dasharray:none;stroke-opacity:1"
         d="M 376.095,325.25 523.18,162.938 547.178,241.729 Z" /><path
         inkscape:connector-curvature="0"
         id="path1260"
         style="fill:#285287;fill-opacity:1;fill-rule:nonzero;stroke:none"
         d="m 612.596,175.619 c -31.349,31.682 -65.418,66.11 -65.418,66.11 L 523.18,162.938 c 0,0 49.173,-13.726 89.416,-24.959 z" /><path
         inkscape:connector-curvature="0"
         id="path1262"
         style="fill:none;stroke:#285287;stroke-width:0.93199998;stroke-linecap:butt;stroke-linejoin:miter;stroke-miterlimit:4;stroke-dasharray:none;stroke-opacity:1"
         d="m 612.596,175.619 c -31.349,31.682 -65.418,66.11 -65.418,66.11 L 523.18,162.938 c 0,0 49.173,-13.726 89.416,-24.959 z" /><path
         inkscape:connector-curvature="0"
         id="path1264"
         style="fill:#27578c;fill-opacity:1;fill-rule:nonzero;stroke:none"
         d="m 612.596,282.65 c -28.651,-17.921 -65.418,-40.921 -65.418,-40.921 0,0 34.069,-34.428 65.418,-66.11 z" /><path
         inkscape:connector-curvature="0"
         id="path1266"
         style="fill:none;stroke:#27578c;stroke-width:0.93199998;stroke-linecap:butt;stroke-linejoin:miter;stroke-miterlimit:4;stroke-dasharray:none;stroke-opacity:1"
         d="m 612.596,282.65 c -28.651,-17.921 -65.418,-40.921 -65.418,-40.921 0,0 34.069,-34.428 65.418,-66.11 z" /><path
         inkscape:connector-curvature="0"
         id="path1268"
         style="fill:#28649b;fill-opacity:1;fill-rule:nonzero;stroke:none"
         d="m 1.772,-0.43 c 24.491,12.567 43.306,22.22 43.306,22.22 0,0 -17.923,5.584 -43.329,13.499 V -0.43 Z" /><path
         inkscape:connector-curvature="0"
         id="path1270"
         style="fill:none;stroke:#28649b;stroke-width:0.93199998;stroke-linecap:butt;stroke-linejoin:miter;stroke-miterlimit:4;stroke-dasharray:none;stroke-opacity:1"
         d="m 1.772,-0.43 c 24.491,12.567 43.306,22.22 43.306,22.22 0,0 -17.923,5.584 -43.329,13.499 V -0.43 Z" /><path
         inkscape:connector-curvature="0"
         id="path1272"
         style="fill:#286ca5;fill-opacity:1;fill-rule:nonzero;stroke:none"
         d="M 1.749,35.289 C 27.155,27.374 45.078,21.79 45.078,21.79 L 20.383,186.482 c 0,0 -7.143,-3.781 -18.634,-9.866 z" /><path
         inkscape:connector-curvature="0"
         id="path1274"
         style="fill:none;stroke:#286ca5;stroke-width:0.93199998;stroke-linecap:butt;stroke-linejoin:miter;stroke-miterlimit:4;stroke-dasharray:none;stroke-opacity:1"
         d="M 1.749,35.289 C 27.155,27.374 45.078,21.79 45.078,21.79 L 20.383,186.482 c 0,0 -7.143,-3.781 -18.634,-9.866 z" /><path
         inkscape:connector-curvature="0"
         id="path1276"
         style="fill:#276aa2;fill-opacity:1;fill-rule:nonzero;stroke:none"
         d="M 20.383,186.482 45.078,21.79 159.87,174.127 Z" /><path
         inkscape:connector-curvature="0"
         id="path1278"
         style="fill:none;stroke:#276aa2;stroke-width:0.93199998;stroke-linecap:butt;stroke-linejoin:miter;stroke-miterlimit:4;stroke-dasharray:none;stroke-opacity:1"
         d="M 20.383,186.482 45.078,21.79 159.87,174.127 Z" /><path
         inkscape:connector-curvature="0"
         id="path1280"
         style="fill:#255c92;fill-opacity:1;fill-rule:nonzero;stroke:none"
         d="m 142.918,-0.43 c 7.114,73.247 16.952,174.557 16.952,174.557 L 45.078,21.79 c 0,0 8.815,-9.351 20.948,-22.22 z" /><path
         inkscape:connector-curvature="0"
         id="path1282"
         style="fill:none;stroke:#255c92;stroke-width:0.93199998;stroke-linecap:butt;stroke-linejoin:miter;stroke-miterlimit:4;stroke-dasharray:none;stroke-opacity:1"
         d="m 142.918,-0.43 c 7.114,73.247 16.952,174.557 16.952,174.557 L 45.078,21.79 c 0,0 8.815,-9.351 20.948,-22.22 z" /><path
         inkscape:connector-curvature="0"
         id="path1284"
         style="fill:#255a90;fill-opacity:1;fill-rule:nonzero;stroke:none"
         d="m 206.886,-0.43 c 39.123,40.659 79.802,82.935 79.802,82.935 L 159.87,174.127 c 0,0 -9.838,-101.31 -16.952,-174.557 z" /><path
         inkscape:connector-curvature="0"
         id="path1286"
         style="fill:none;stroke:#255a90;stroke-width:0.93199998;stroke-linecap:butt;stroke-linejoin:miter;stroke-miterlimit:4;stroke-dasharray:none;stroke-opacity:1"
         d="m 206.886,-0.43 c 39.123,40.659 79.802,82.935 79.802,82.935 L 159.87,174.127 c 0,0 -9.838,-101.31 -16.952,-174.557 z" /><path
         inkscape:connector-curvature="0"
         id="path1288"
         style="fill:#264e82;fill-opacity:1;fill-rule:nonzero;stroke:none"
         d="m 334.884,-0.43 c 25.601,9.506 43.109,16.007 43.109,16.007 l -91.305,66.928 c 0,0 -40.679,-42.276 -79.802,-82.935 z" /><path
         inkscape:connector-curvature="0"
         id="path1290"
         style="fill:none;stroke:#264e82;stroke-width:0.93199998;stroke-linecap:butt;stroke-linejoin:miter;stroke-miterlimit:4;stroke-dasharray:none;stroke-opacity:1"
         d="m 334.884,-0.43 c 25.601,9.506 43.109,16.007 43.109,16.007 l -91.305,66.928 c 0,0 -40.679,-42.276 -79.802,-82.935 z" /><path
         inkscape:connector-curvature="0"
         id="path1292"
         style="fill:#265185;fill-opacity:1;fill-rule:nonzero;stroke:none"
         d="M 286.688,82.505 377.993,15.577 523.18,162.938 Z" /><path
         inkscape:connector-curvature="0"
         id="path1294"
         style="fill:none;stroke:#265185;stroke-width:0.93199998;stroke-linecap:butt;stroke-linejoin:miter;stroke-miterlimit:4;stroke-dasharray:none;stroke-opacity:1"
         d="M 286.688,82.505 377.993,15.577 523.18,162.938 Z" /><path
         inkscape:connector-curvature="0"
         id="path1296"
         style="fill:#27487b;fill-opacity:1;fill-rule:nonzero;stroke:none"
         d="m 521.365,-0.43 c 0.281,25.329 1.815,163.368 1.815,163.368 L 377.993,15.577 c 0,0 73.068,-10.181 114.862,-16.007 z" /><path
         inkscape:connector-curvature="0"
         id="path1298"
         style="fill:none;stroke:#27487b;stroke-width:0.93199998;stroke-linecap:butt;stroke-linejoin:miter;stroke-miterlimit:4;stroke-dasharray:none;stroke-opacity:1"
         d="m 521.365,-0.43 c 0.281,25.329 1.815,163.368 1.815,163.368 L 377.993,15.577 c 0,0 73.068,-10.181 114.862,-16.007 z" /><path
         inkscape:connector-curvature="0"
         id="path1300"
         style="fill:#284779;fill-opacity:1;fill-rule:nonzero;stroke:none"
         d="m 525.745,-0.43 c 13.155,11.798 53.211,47.721 86.851,77.893 v 60.516 c -40.243,11.233 -89.416,24.959 -89.416,24.959 0,0 -1.534,-138.039 -1.815,-163.368 z" /><path
         inkscape:connector-curvature="0"
         id="path1302"
         style="fill:none;stroke:#284779;stroke-width:0.93199998;stroke-linecap:butt;stroke-linejoin:miter;stroke-miterlimit:4;stroke-dasharray:none;stroke-opacity:1"
         d="m 525.745,-0.43 c 13.155,11.798 53.211,47.721 86.851,77.893 v 60.516 c -40.243,11.233 -89.416,24.959 -89.416,24.959 0,0 -1.534,-138.039 -1.815,-163.368 z" /><path
         inkscape:connector-curvature="0"
         id="path1304"
         style="fill:#28396b;fill-opacity:1;fill-rule:nonzero;stroke:none"
         d="M 612.596,-0.43 V 77.463 C 578.956,47.291 538.9,11.368 525.745,-0.43 Z" /><path
         inkscape:connector-curvature="0"
         id="path1306"
         style="fill:none;stroke:#28396b;stroke-width:0.93199998;stroke-linecap:butt;stroke-linejoin:miter;stroke-miterlimit:4;stroke-dasharray:none;stroke-opacity:1"
         d="M 612.596,-0.43 V 77.463 C 578.956,47.291 538.9,11.368 525.745,-0.43 Z" /><path
         inkscape:connector-curvature="0"
         id="path1308"
         style="fill:#26568b;fill-opacity:1;fill-rule:nonzero;stroke:none"
         d="M 66.026,-0.43 C 53.893,12.439 45.078,21.79 45.078,21.79 c 0,0 -18.815,-9.653 -43.306,-22.22 z" /><path
         inkscape:connector-curvature="0"
         id="path1310"
         style="fill:none;stroke:#26568b;stroke-width:0.93199998;stroke-linecap:butt;stroke-linejoin:miter;stroke-miterlimit:4;stroke-dasharray:none;stroke-opacity:1"
         d="M 66.026,-0.43 C 53.893,12.439 45.078,21.79 45.078,21.79 c 0,0 -18.815,-9.653 -43.306,-22.22 z" /><path
         inkscape:connector-curvature="0"
         id="path1312"
         style="fill:#284476;fill-opacity:1;fill-rule:nonzero;stroke:none"
         d="m 492.855,-0.43 c -41.794,5.826 -114.862,16.007 -114.862,16.007 0,0 -17.508,-6.501 -43.109,-16.007 z" /><path
         inkscape:connector-curvature="0"
         id="path1314"
         style="fill:none;stroke:#284476;stroke-width:0.93199998;stroke-linecap:butt;stroke-linejoin:miter;stroke-miterlimit:4;stroke-dasharray:none;stroke-opacity:1"
         d="m 492.855,-0.43 c -41.794,5.826 -114.862,16.007 -114.862,16.007 0,0 -17.508,-6.501 -43.109,-16.007 z" /><path
         inkscape:connector-curvature="0"
         id="path1640"
         style="fill:#ffffff;fill-opacity:1;fill-rule:nonzero;stroke:none"
         d="M 612.596,-0.43 H 342.433 194.211 145.432 78.704 0 v 304.353 c 24.808,6.591 50.785,12.135 78.704,15.416 7.454,0.869 15.276,1.62 23.655,2.162 9.37,0.614 21.964,1.38 43.073,0.676 18.821,-0.636 34.437,-2.282 48.779,-4.32 52.955,-7.518 101.432,-23.09 148.222,-39.299 91.453,-31.693 180.628,-64.351 270.163,-64.376 z" /></g></g></svg>